<svg width="27" height="27" viewBox="0 0 27 27" fill="none" xmlns="http://www.w3.org/2000/svg">
<g id="Group 1">
<path id="Vector" d="M13.5 26.4167C20.6337 26.4167 26.4167 20.6337 26.4167 13.5C26.4167 6.36636 20.6337 0.583374 13.5 0.583374C6.36636 0.583374 0.583374 6.36636 0.583374 13.5C0.583374 20.6337 6.36636 26.4167 13.5 26.4167Z" stroke="#D9D9D9" stroke-opacity="0.55" stroke-linecap="round" stroke-linejoin="round"/>
<path id="Vector_2" d="M13.5001 19.9583V13.5H11.8855M11.8855 19.9583H15.1147" stroke="#D9D9D9" stroke-opacity="0.55" stroke-linecap="round" stroke-linejoin="round"/>
<path id="Vector_3" d="M13.5001 10.2709C14.3918 10.2709 15.1147 9.54804 15.1147 8.65633C15.1147 7.76462 14.3918 7.04175 13.5001 7.04175C12.6084 7.04175 11.8855 7.76462 11.8855 8.65633C11.8855 9.54804 12.6084 10.2709 13.5001 10.2709Z" fill="#D9D9D9" fill-opacity="0.55"/>
</g>
</svg>
