<svg width="24" height="24" viewBox="0 0 24 24" fill="none" xmlns="http://www.w3.org/2000/svg">
<g id="icon/google">
<g id="Vector">
<path d="M21.8152 10.6393H21.05V10.5999H12.5V14.3998H17.8689C17.0857 16.6118 14.9809 18.1997 12.5 18.1997C9.35217 18.1997 6.8 15.6476 6.8 12.4998C6.8 9.35207 9.35217 6.79993 12.5 6.79993C13.953 6.79993 15.275 7.34808 16.2815 8.24343L18.9685 5.55641C17.2718 3.97516 15.0023 3 12.5 3C7.25362 3 3 7.25355 3 12.4998C3 17.7461 7.25362 21.9997 12.5 21.9997C17.7464 21.9997 22 17.7461 22 12.4998C22 11.8629 21.9345 11.2411 21.8152 10.6393Z" fill="#FFC107"/>
<path d="M4.09521 8.07814L7.21644 10.3671C8.06099 8.27621 10.1065 6.79993 12.5 6.79993C13.953 6.79993 15.275 7.34808 16.2815 8.24343L18.9685 5.55641C17.2718 3.97516 15.0023 3 12.5 3C8.85105 3 5.68646 5.06004 4.09521 8.07814Z" fill="#FF3D00"/>
<path d="M12.5 21.9997C14.9538 21.9997 17.1834 21.0609 18.8691 19.5338L15.9289 17.0458C14.943 17.7956 13.7385 18.2007 12.5 18.1997C10.029 18.1997 7.93083 16.6245 7.14043 14.4258L4.04248 16.8126C5.61473 19.8891 8.80783 21.9997 12.5 21.9997Z" fill="#4CAF50"/>
<path d="M21.8152 10.6393H21.05V10.5999H12.5V14.3998H17.8689C17.4942 15.4526 16.8193 16.3723 15.9276 17.0457L15.929 17.0448L18.8693 19.5328C18.6612 19.7218 22 17.2498 22 12.4998C22 11.8629 21.9345 11.2411 21.8152 10.6393Z" fill="#1976D2"/>
</g>
</g>
</svg>
